<?xml version="1.0" standalone="no"?>
<!DOCTYPE svg PUBLIC "-//W3C//DTD SVG 20010904//EN"
 "http://www.w3.org/TR/2001/REC-SVG-20010904/DTD/svg10.dtd">
<svg version="1.0" xmlns="http://www.w3.org/2000/svg"
 width="1024.000000pt" height="1024.000000pt" viewBox="0 0 1024.000000 1024.000000"
 preserveAspectRatio="xMidYMid meet">

<g transform="translate(0.000000,1024.000000) scale(0.100000,-0.100000)"
fill="#000000" stroke="none">
<path d="M4940 9318 c-972 -37 -1920 -425 -2615 -1071 -386 -358 -670 -737
-900 -1199 -206 -415 -336 -838 -395 -1292 -121 -933 40 -1840 465 -2617 193
-353 394 -626 675 -913 401 -410 821 -698 1355 -928 674 -292 1447 -393 2190
-287 1221 175 2322 896 2948 1933 359 595 552 1196 608 1900 15 189 6 654 -15
828 -60 479 -185 900 -396 1333 -473 969 -1270 1693 -2275 2065 -512 189
-1052 271 -1645 248z m17 -1849 c178 -15 339 -44 447 -80 182 -60 452 -204
741 -394 180 -118 169 -115 357 -115 370 0 618 -35 863 -122 83 -29 186 -81
223 -113 39 -33 41 -69 12 -165 -32 -106 -23 -142 41 -161 63 -18 128 13 151
71 l9 24 24 -29 c67 -82 94 -279 61 -439 -20 -98 -20 -139 0 -193 9 -23 14
-49 11 -57 -17 -45 -340 -70 -1081 -86 -232 -5 -450 -14 -486 -20 -77 -14
-1025 5 -1076 21 -43 13 -54 45 -54 157 0 161 -30 354 -75 485 -50 146 -154
279 -254 325 -46 21 -64 24 -135 20 -66 -3 -92 -10 -128 -31 -84 -49 -152
-143 -199 -276 -27 -77 -49 -103 -49 -57 0 39 -45 155 -72 183 -50 54 -88 64
-358 92 -967 102 -925 100 -969 44 -34 -43 -28 -101 28 -246 59 -154 81 -189
144 -223 57 -31 75 -36 237 -74 579 -135 712 -170 783 -208 180 -97 190 -104
175 -118 -11 -11 -33 -10 -133 1 -387 47 -837 90 -1040 101 -160 8 -189 16
-208 57 -9 20 -19 93 -25 192 -17 247 -67 402 -166 512 -49 55 -133 104 -175
102 -72 -2 -145 -57 -188 -143 -38 -75 -73 -228 -74 -326 l-1 -85 -21 45 c-20
40 -22 61 -21 195 0 174 24 328 55 361 10 11 28 49 40 85 26 79 61 126 108
146 21 9 87 19 159 23 116 7 127 10 175 41 248 156 401 238 567 304 230 92
501 148 835 174 163 12 596 13 742 0z m-2321 -971 c42 -32 52 -46 84 -113 37
-77 61 -192 67 -325 8 -174 -33 -316 -113 -390 -37 -34 -50 -40 -86 -40 -24 0
-56 8 -74 19 -39 23 -87 99 -112 176 -95 283 4 695 167 695 24 0 49 -8 67 -22z
m2205 -59 c141 -72 229 -267 229 -509 0 -127 -21 -232 -61 -312 -110 -218
-274 -265 -419 -120 -105 105 -153 247 -153 447 0 138 16 221 65 322 38 79
126 173 178 190 46 16 110 8 161 -18z m-1097 -1211 c19 -51 60 -158 91 -238
31 -80 87 -226 125 -325 38 -99 110 -286 159 -415 50 -129 91 -238 91 -242 0
-4 -69 -8 -153 -8 l-152 0 -49 135 -49 135 -267 0 -267 0 -49 -135 -48 -135
-154 0 c-143 0 -154 1 -147 18 10 27 111 292 170 447 59 156 309 810 320 838
6 15 24 17 175 17 l168 0 36 -92z m3260 -223 c202 -36 335 -160 386 -361 67
-261 -37 -516 -253 -618 -117 -55 -230 -68 -364 -40 -238 49 -383 218 -400
465 -20 299 145 517 422 558 87 13 121 12 209 -4z m-1913 -26 c51 -24 107 -76
131 -123 17 -31 22 -60 22 -118 1 -69 -2 -80 -29 -118 -30 -42 -54 -60 -110
-82 l-30 -11 36 -7 c51 -9 104 -45 130 -87 27 -44 38 -174 20 -241 -13 -48
-64 -110 -117 -143 -71 -44 -120 -49 -461 -49 l-323 0 0 501 0 500 348 -3
c294 -3 352 -5 383 -19z m1199 -94 l0 -115 -155 0 -155 0 0 -385 0 -385 -135
0 -135 0 0 385 0 385 -155 0 -155 0 0 115 0 115 445 0 445 0 0 -115z m-876
-1193 c134 -63 203 -169 213 -328 15 -227 -129 -392 -359 -411 -138 -12 -279
40 -349 129 -98 125 -114 316 -37 461 36 66 77 106 148 142 73 37 114 45 221
41 83 -2 105 -7 163 -34z m-2344 -277 l0 -295 115 0 115 0 0 295 0 295 88 0
87 0 -1 -295 -2 -295 114 0 114 0 0 295 0 295 85 0 85 0 0 -370 0 -370 -485 0
-485 0 0 370 0 370 85 0 85 0 0 -295z m1208 139 l-3 -155 20 24 c11 13 71 83
133 155 l113 132 110 0 110 0 -155 -166 -156 -166 19 -26 c11 -15 85 -107 165
-204 l145 -178 -107 0 -107 0 -112 143 c-62 78 -127 159 -145 180 l-33 39 3
-181 3 -181 -90 0 -91 0 0 370 0 370 91 0 90 0 -3 -156z m2162 -214 l0 -370
-85 0 -85 0 0 295 0 295 -120 0 -120 0 0 -137 c-1 -239 -25 -355 -88 -418 -34
-34 -96 -55 -162 -55 l-30 0 0 80 c0 77 1 80 23 80 38 0 65 27 77 77 6 27 14
155 17 286 l6 237 283 0 284 0 0 -370z m659 318 c10 -29 71 -186 134 -348 63
-162 117 -305 121 -317 7 -23 6 -23 -83 -23 l-90 0 -28 75 -28 75 -150 0 -151
0 -26 -72 -25 -73 -92 -3 c-50 -1 -91 0 -91 3 0 4 204 537 277 723 4 8 35 12
108 12 l104 0 20 -52z m-2654 -1067 c79 -35 132 -123 123 -205 -9 -74 -38
-118 -165 -245 -68 -68 -123 -125 -123 -127 0 -2 68 -4 150 -4 l150 0 0 -60 0
-60 -255 0 -255 0 0 63 0 62 142 130 c154 142 196 192 205 247 5 32 1 41 -25
68 -58 58 -149 32 -173 -51 l-12 -39 -70 0 -70 0 5 44 c11 95 72 164 168 190
64 18 146 13 205 -13z m703 -211 l-3 -220 33 0 32 0 0 -59 c0 -60 0 -60 -32
-63 l-31 -3 2 -72 2 -73 -75 0 -76 0 0 75 0 75 -165 0 -165 0 0 63 c0 63 0 63
78 168 42 57 114 155 159 217 l83 112 80 0 81 0 -3 -220z m1001 168 c0 -44
-21 -102 -127 -353 l-127 -300 -82 -3 -81 -3 124 287 c68 158 124 290 124 293
0 3 -74 5 -165 3 l-165 -3 0 66 0 65 250 0 250 0 -1 -52z m-539 -308 l0 -60
-130 0 -130 0 0 60 0 60 130 0 130 0 0 -60z"/>
<path d="M4243 7342 c-86 -5 -137 -12 -145 -20 -15 -15 -24 2 107 -196 50 -75
104 -157 120 -183 l30 -46 889 -4 c572 -3 886 -1 882 5 -10 16 -224 175 -318
236 -116 75 -276 150 -363 170 -38 9 -126 20 -195 26 -154 13 -827 21 -1007
12z"/>
<path d="M3585 7271 c-248 -67 -525 -226 -525 -300 0 -21 25 -46 61 -60 93
-35 1030 -98 1069 -72 13 9 11 18 -14 68 -92 189 -192 315 -279 354 -73 32
-215 36 -312 10z"/>
<path d="M5168 6689 c-33 -19 -18 -48 73 -144 113 -117 194 -180 262 -200 73
-22 333 -46 522 -48 153 -2 162 -1 210 23 27 14 51 30 52 36 11 34 -521 221
-881 310 -143 35 -208 41 -238 23z"/>
<path d="M6825 6250 c-372 -6 -343 0 -490 -95 -38 -25 -101 -55 -140 -67 -68
-21 -75 -21 -245 -9 -96 6 -201 15 -232 18 l-56 6 -56 -53 c-30 -28 -78 -86
-106 -128 -44 -67 -50 -83 -50 -128 0 -36 5 -56 17 -65 32 -27 787 -52 849
-29 27 11 27 11 8 30 -10 10 -53 37 -94 59 -46 25 -67 41 -55 42 61 3 101 -8
210 -59 l120 -57 261 -3 c267 -4 711 18 786 38 26 8 53 28 90 70 29 33 56 60
61 60 5 0 7 -25 5 -56 l-3 -56 30 6 c39 8 60 34 80 101 22 77 39 208 31 240
-6 22 -11 26 -29 20 -64 -20 -72 -18 -165 45 -50 34 -108 66 -129 71 -39 9
-126 9 -698 -1z"/>
<path d="M2510 6408 c-63 -62 -93 -171 -93 -333 0 -171 40 -294 112 -342 45
-30 63 -29 104 7 70 61 102 191 95 378 -6 143 -36 238 -92 290 -47 42 -84 43
-126 0z"/>
<path d="M4690 6355 c-111 -50 -177 -185 -187 -380 -10 -208 62 -387 180 -444
54 -26 97 -27 146 -2 159 82 229 390 141 623 -60 162 -179 247 -280 203z"/>
<path d="M3457 4763 c-47 -130 -85 -239 -83 -240 2 -2 80 -2 173 -1 l170 3
-87 238 -87 238 -86 -238z"/>
<path d="M6795 4764 c-109 -40 -173 -184 -146 -332 22 -120 76 -188 173 -217
119 -35 239 21 291 135 31 69 30 216 -2 288 -54 119 -188 173 -316 126z"/>
<path d="M4630 4700 l0 -100 141 0 141 0 29 29 c23 23 29 38 29 71 0 33 -6 48
-29 71 l-29 29 -141 0 -141 0 0 -100z"/>
<path d="M4630 4310 l0 -110 145 0 c158 0 188 7 211 51 24 48 18 106 -15 140
l-29 29 -156 0 -156 0 0 -110z"/>
<path d="M5158 3566 c-62 -23 -84 -42 -112 -97 -21 -43 -26 -67 -26 -129 0
-151 76 -236 210 -234 146 1 231 103 217 261 -6 62 -25 111 -56 147 -45 51
-164 78 -233 52z"/>
<path d="M6924 3402 l-51 -137 54 -3 c30 -2 75 -2 101 0 l47 3 -50 137 -51
137 -50 -137z"/>
<path d="M4948 2357 c-26 -40 -68 -100 -93 -134 l-46 -63 95 0 96 0 0 119 c0
66 3 126 6 135 14 38 -15 9 -58 -57z"/>
</g>
</svg>
